PathFileType	4	(X/Y/Z)	/Users/itak/Documents/Research/Walk-IL/dataset/trc/00424_00167.trc
DataRate	CameraRate	NumFrames	NumMarkers	Units	OrigDataRate	OrigDataStartFrame	OrigNumFrames
100.000000	100.000000	4	55	mm	100.000000	238	636
Frame#	Time	RPSI			LPSI			L3			STRN			T10			C7			CLAV			RBAK			LBAK			LSHO			LUPA			LAEL			LAOL			LWTS			LWPS			LFRA			LIFD			LHPS			LHTS			RSHO			RUPA			RAEL			RAOL			RWTS			RWPS			RFRA			RIFD			RHTS			RHPS			RBHD			LFHD			RFHD			LBHD			LHIP			RHIP			RASI			LASI			LKNE			LTHI			LANK			LTIP			LTOE			LMT1			LMT5			LHEE			RKNE			RTHI			RANK			RTIP			RTOE			RMT1			RMT5			RHEE			*53			*54			
		X1	Y1	Z1	X2	Y2	Z2	X3	Y3	Z3	X4	Y4	Z4	X5	Y5	Z5	X6	Y6	Z6	X7	Y7	Z7	X8	Y8	Z8	X9	Y9	Z9	X10	Y10	Z10	X11	Y11	Z11	X12	Y12	Z12	X13	Y13	Z13	X14	Y14	Z14	X15	Y15	Z15	X16	Y16	Z16	X17	Y17	Z17	X18	Y18	Z18	X19	Y19	Z19	X20	Y20	Z20	X21	Y21	Z21	X22	Y22	Z22	X23	Y23	Z23	X24	Y24	Z24	X25	Y25	Z25	X26	Y26	Z26	X27	Y27	Z27	X28	Y28	Z28	X29	Y29	Z29	X30	Y30	Z30	X31	Y31	Z31	X32	Y32	Z32	X33	Y33	Z33	X34	Y34	Z34	X35	Y35	Z35	X36	Y36	Z36	X37	Y37	Z37	X38	Y38	Z38	X39	Y39	Z39	X40	Y40	Z40	X41	Y41	Z41	X42	Y42	Z42	X43	Y43	Z43	X44	Y44	Z44	X45	Y45	Z45	X46	Y46	Z46	X47	Y47	Z47	X48	Y48	Z48	X49	Y49	Z49	X50	Y50	Z50	X51	Y51	Z51	X52	Y52	Z52	X53	Y53	Z53	X54	Y54	Z54	X55	Y55	Z55	

239	2.38	-853.5258178710938	972.3994750976562	-212.1062316894531	-780.2890014648438	973.5574340820312	-333.0214233398438	-807.8510131835938	1073.524047851562	-243.2086639404297	-567.779541015625	1226.965698242188	-81.76628112792969	-815.81591796875	1197.754150390625	-242.3215026855469	-752.4998779296875	1450.437255859375	-155.0216522216797	-591.189453125	1344.928588867188	-84.62146759033203	-860.5692138671875	1330.331787109375	-121.6576843261719	-724.747802734375	1420.93115234375	-266.3031005859375	-590.2930908203125	1432.862915039062	-268.082763671875	-533.929931640625	1323.255126953125	-362.0276794433594	-487.2172546386719	1110.548706054688	-384.3547668457031	-586.457275390625	1089.216552734375	-403.4082336425781	-454.1712951660156	923.3074951171875	-268.9813537597656	-437.5908508300781	899.3455200195312	-336.9649963378906	-459.6494750976562	1026.774047851562	-363.3336486816406	-433.7845153808594	752.4356689453125	-247.257568359375	-428.8569946289062	820.64208984375	-319.2683715820312	-431.578857421875	837.2786254882812	-250.4599914550781	-774.3992309570312	1392.669067382812	15.50261878967285	-828.2750854492188	1325.987426757812	66.06037902832031	-856.6876220703125	1038.140991210938	101.4838409423828	-889.0707397460938	1021.136169433594	43.79510116577148	-728.4474487304688	851.0139770507812	96.43626403808594	-811.0333251953125	825.6744995117188	113.8606872558594	-851.951904296875	978.9501342773438	108.4677124023438	-713.7815551757812	692.0855102539062	104.0303344726562	-709.9786376953125	753.1664428710938	114.2913055419922	-785.15478515625	741.454345703125	118.090087890625	-729.67919921875	1622.00341796875	-13.32102680206299	-551.130126953125	1660.936889648438	-113.1176910400391	-595.8363647460938	1650.733520507812	10.06859874725342	-684.1817626953125	1639.24755859375	-185.2376098632812	-618.3941040039062	855.1295776367188	-374.9163818359375	-824.2235107421875	860.0875244140625	-34.70560073852539	-702.0569458007812	897.293212890625	-36.61365509033203	-565.9703979492188	886.207275390625	-256.510009765625	-665.838623046875	432.3345336914062	-396.1570739746094	-610.3533325195312	582.1134643554688	-373.5933227539062	-944.091796875	161.6820220947266	-553.048583984375	-755.5762329101562	312.381103515625	-458.2612915039062	-847.5712890625	37.49298858642578	-403.8171081542969	-906.7601928710938	68.62504577636719	-410.5570983886719	-846.741455078125	66.84152984619141	-501.8434753417969	-1001.237548828125	201.6882781982422	-530.3584594726562	-756.078125	460.9218139648438	-48.67001724243164	-782.84326171875	725.6679077148438	-4.589180469512939	-710.2034301757812	35.12123489379883	-64.54584503173828	-739.061767578125	314.0580139160156	-35.48666763305664	-501.6428527832031	59.8699951171875	4.947683811187744	-538.81103515625	68.94863891601562	-56.69370269775391	-605.7009887695312	41.98831558227539	23.78256988525391	-740.66259765625	27.31202697753906	-140.8081817626953	nan	nan	nan	nan	nan	nan	
240	2.39	-849.9016723632812	972.5751342773438	-207.3023681640625	-777.5360107421875	973.287353515625	-328.7481384277344	-804.6416015625	1073.689697265625	-238.1815032958984	-564.685791015625	1227.70654296875	-77.32471466064453	-812.9642333984375	1197.860961914062	-237.2746734619141	-750.0834350585938	1450.765869140625	-150.2117004394531	-588.4652099609375	1345.621215820312	-80.10166931152344	-857.8128662109375	1330.399780273438	-116.623405456543	-722.6539916992188	1421.34619140625	-261.5911254882812	-588.229736328125	1433.48876953125	-263.6706237792969	-531.8256225585938	1323.941650390625	-357.6584777832031	-483.6471557617188	1111.989013671875	-379.8103637695312	-582.6162719726562	1088.879028320312	-397.8010559082031	-446.5727844238281	927.5791625976562	-261.5950317382812	-430.6031494140625	902.4788208007812	-329.3575744628906	-454.7557983398438	1028.931274414062	-357.8110656738281	-422.77685546875	757.5846557617188	-236.6783447265625	-420.1908264160156	824.3702392578125	-310.1617431640625	-422.1628723144531	842.440673828125	-241.6767578125	-771.5802612304688	1393.05419921875	20.34673309326172	-825.2687377929688	1326.368286132812	71.06378936767578	-852.91943359375	1038.583984375	107.3903503417969	-885.1641235351562	1021.067199707031	49.79136657714844	-722.6917724609375	852.9656982421875	103.1789093017578	-804.9505615234375	826.6856689453125	120.7123489379883	-847.5704345703125	979.4723510742188	114.6122055053711	-705.883056640625	694.323486328125	111.7762069702148	-702.9271850585938	755.5103149414062	121.66748046875	-777.9398803710938	742.8070068359375	125.4417572021484	-727.1371459960938	1622.605346679688	-8.796353340148926	-548.285400390625	1661.31103515625	-107.9877319335938	-593.4000244140625	1651.173706054688	15.02572059631348	-680.9933471679688	1639.874877929688	-180.7192993164062	-614.2872924804688	855.073974609375	-370.0986328125	-820.1507568359375	860.3168334960938	-30.07864952087402	-698.088134765625	897.5186767578125	-32.06329345703125	-562.33642578125	886.9845581054688	-252.0543670654297	-654.5286865234375	431.6643371582031	-389.3663635253906	-600.6905517578125	582.0146484375	-367.4114990234375	-939.2246704101562	169.1723327636719	-547.7171630859375	-746.855712890625	313.9556884765625	-452.1307983398438	-843.8984985351562	36.79933929443359	-402.1905517578125	-902.51416015625	72.25981903076172	-407.3602294921875	-843.8538208007812	70.54678344726562	-499.4464721679688	-995.3157348632812	209.8543395996094	-523.8296508789062	-754.0618286132812	460.9725646972656	-46.16595458984375	-779.03759765625	725.7477416992188	-0.6748822927474976	-710.1135864257812	35.14297485351562	-64.54347991943359	-737.7258911132812	313.915283203125	-33.90961456298828	-501.4337768554688	59.23280715942383	4.797093868255615	-538.6550903320312	68.48884582519531	-56.66893005371094	-605.6654663085938	41.88655090332031	23.90944671630859	-740.6430053710938	27.45797538757324	-140.7266998291016	nan	nan	nan	nan	nan	nan	
241	2.4	-846.3568115234375	972.7359619140625	-202.5453948974609	-774.7052001953125	972.9076538085938	-324.4324645996094	-801.5368041992188	1073.810302734375	-233.2520599365234	-561.6045532226562	1228.433471679688	-73.06865692138672	-810.1893920898438	1197.924926757812	-232.3358764648438	-747.7240600585938	1451.05712890625	-145.5560455322266	-585.77099609375	1346.293090820312	-75.78270721435547	-855.1031494140625	1330.43408203125	-111.7072525024414	-720.6238403320312	1421.708251953125	-257.040771484375	-586.2506103515625	1434.083129882812	-259.4598083496094	-529.7954711914062	1324.5634765625	-353.4598083496094	-480.237548828125	1113.34130859375	-375.3638000488281	-578.920654296875	1088.500366210938	-392.2490844726562	-439.1071472167969	931.8147583007812	-254.5013732910156	-423.7991943359375	905.5947875976562	-322.0634460449219	-450.000732421875	1031.031372070312	-352.45703125	-411.9096374511719	762.7857666015625	-226.5865173339844	-411.7085876464844	828.1289672851562	-301.4503784179688	-412.8733825683594	847.5958251953125	-233.3115692138672	-768.7462768554688	1393.399780273438	25.04229545593262	-822.1986083984375	1326.6943359375	75.95401000976562	-849.0748291015625	1039.004272460938	113.2139587402344	-881.222900390625	1020.994750976562	55.72684860229492	-717.0706176757812	854.78076171875	109.8256454467773	-799.0093383789062	827.6571044921875	127.4762878417969	-843.1766967773438	979.9778442382812	120.6830368041992	-698.3049926757812	696.4430541992188	119.4220581054688	-696.1248168945312	757.7188110351562	128.9439849853516	-770.9817504882812	744.1076049804688	132.7114562988281	-724.6316528320312	1623.171875	-4.447221279144287	-545.4863891601562	1661.669799804688	-103.0401992797852	-591.0092163085938	1651.581787109375	19.80332183837891	-677.85107421875	1640.468872070312	-176.3881988525391	-610.1695556640625	855.0308227539062	-365.3340454101562	-816.1301879882812	860.4967041015625	-25.5067081451416	-694.1602783203125	897.70849609375	-27.58797645568848	-558.7403564453125	887.7545776367188	-247.6561584472656	-643.1510009765625	431.1304931640625	-382.3737487792969	-590.9692993164062	582.033935546875	-361.1368103027344	-933.9327392578125	176.5753936767578	-542.0188598632812	-737.9208984375	315.6709899902344	-445.7554626464844	-839.4937133789062	36.48749542236328	-400.0504455566406	-897.529541015625	76.24626159667969	-403.6376037597656	-840.3356323242188	74.61349487304688	-496.5711975097656	-989.0166625976562	217.8032073974609	-516.981201171875	-752.071533203125	460.97900390625	-43.7301025390625	-775.2943725585938	725.7619018554688	3.177186012268066	-710.0184936523438	35.18106079101562	-64.54585266113281	-736.4027099609375	313.7576293945312	-32.36642837524414	-501.1861572265625	58.52165222167969	4.599775791168213	-538.4754028320312	67.98641967773438	-56.64888000488281	-605.6251220703125	41.79323196411133	24.03557777404785	-740.6270141601562	27.62392807006836	-140.6365661621094	nan	nan	nan	nan	nan	nan	
242	2.41	-842.8726196289062	972.8790893554688	-197.8436737060547	-771.7733764648438	972.4645385742188	-320.0787963867188	-798.5277099609375	1073.893432617188	-228.4333648681641	-558.5322265625	1229.161499023438	-68.98176574707031	-807.4785766601562	1197.955932617188	-227.5063323974609	-745.4144897460938	1451.322875976562	-141.0518035888672	-583.0980834960938	1346.957763671875	-71.65965270996094	-852.4385375976562	1330.447509765625	-106.9073486328125	-718.6495971679688	1422.027221679688	-252.6504211425781	-584.3480834960938	1434.654541015625	-255.4475555419922	-527.833251953125	1325.135864257812	-349.4279479980469	-476.9636840820312	1114.617919921875	-371.00537109375	-575.3720092773438	1088.126708984375	-386.7823181152344	-431.8440856933594	935.9876098632812	-247.7002868652344	-417.1764526367188	908.6853637695312	-315.0621032714844	-445.3841247558594	1033.073852539062	-347.2484741210938	-401.2559814453125	768.016845703125	-216.9874267578125	-403.4315490722656	831.8952026367188	-293.1252746582031	-403.7814636230469	852.7164916992188	-225.3509216308594	-765.9035034179688	1393.719116210938	29.59335899353027	-819.0729370117188	1326.97607421875	80.72998046875	-845.1416625976562	1039.41259765625	118.946891784668	-877.2412109375	1020.9287109375	61.59714126586914	-711.5847778320312	856.4476928710938	116.3625564575195	-793.2227172851562	828.5888061523438	134.1418914794922	-838.7657470703125	980.474609375	126.671630859375	-691.081298828125	698.41845703125	126.9466934204102	-689.5925903320312	759.767578125	136.1043853759766	-764.3088989257812	745.3505249023438	139.8890991210938	-722.1621704101562	1623.72216796875	-0.266926109790802	-542.7261962890625	1662.020629882812	-98.28326416015625	-588.6497192382812	1651.966430664062	24.4012279510498	-674.7584228515625	1641.038452148438	-172.2276306152344	-606.0175170898438	855.0320434570312	-360.6181030273438	-812.184326171875	860.6264038085938	-20.99144744873047	-690.293212890625	897.8673095703125	-23.18616676330566	-555.141845703125	888.544189453125	-243.2787170410156	-631.7476196289062	430.791259765625	-375.2221374511719	-581.2276611328125	582.208984375	-354.777099609375	-928.2158813476562	183.7454223632812	-535.9853515625	-728.8175048828125	317.5460205078125	-439.1968994140625	-834.333740234375	36.76662445068359	-397.303955078125	-891.7935791015625	80.51494598388672	-399.3530578613281	-836.139892578125	78.95742797851562	-493.1493530273438	-982.3452758789062	225.4243774414062	-509.8609008789062	-750.09814453125	460.9437255859375	-41.37249755859375	-771.6185913085938	725.7135009765625	6.954609870910645	-709.9202880859375	35.23855972290039	-64.54975891113281	-735.0890502929688	313.5928955078125	-30.86265182495117	-500.8944702148438	57.72329711914062	4.354897022247314	-538.2700805664062	67.44098663330078	-56.63647079467773	-605.5776977539062	41.7073974609375	24.1602611541748	-740.6099853515625	27.80583000183105	-140.5440063476562	nan	nan	nan	nan	nan	nan	
